<svg width="12" height="18" viewBox="0 0 12 18" fill="none" xmlns="http://www.w3.org/2000/svg">
<path d="M6.00002 0.666748C2.77502 0.666748 0.166687 3.27508 0.166687 6.50008C0.166687 10.8751 6.00002 17.3334 6.00002 17.3334C6.00002 17.3334 11.8334 10.8751 11.8334 6.50008C11.8334 3.27508 9.22502 0.666748 6.00002 0.666748ZM1.83335 6.50008C1.83335 4.20008 3.70002 2.33342 6.00002 2.33342C8.30002 2.33342 10.1667 4.20008 10.1667 6.50008C10.1667 8.90008 7.76669 12.4918 6.00002 14.7334C4.26669 12.5084 1.83335 8.87508 1.83335 6.50008Z" fill="black"/>
<path d="M6.00002 8.58341C7.15061 8.58341 8.08335 7.65067 8.08335 6.50008C8.08335 5.34949 7.15061 4.41675 6.00002 4.41675C4.84943 4.41675 3.91669 5.34949 3.91669 6.50008C3.91669 7.65067 4.84943 8.58341 6.00002 8.58341Z" fill="black"/>
</svg>
